# xmcd
#
# Track frame offsets:
#	150
#	16965
#	26848
#	44105
#	67721
#	92693
#	105649
#	119310
#	135981
#	151877
#
# Disc length: 2211 seconds
#
# Revision: 0
# Processed by: cddbd v1.5.2PL0 Copyright (c) Steve Scherf et al.
# Submitted via: audiograbber 1.83.01
#
DISCID=7808a10a
DTITLE=Sylvia Rose Novak - Chasing Ghosts
DYEAR=2014
DGENRE=Country
TTITLE0=Highway Song
TTITLE1=Dust
TTITLE2=Loaded
TTITLE3=Where Flowers Won't Grow
TTITLE4=Kentucky
TTITLE5=Fading
TTITLE6=Wanted
TTITLE7=Conversations with a Stranger
TTITLE8=Burn It Down
TTITLE9=Wild Horse
EXTD=
EXTT0=
EXTT1=
EXTT2=
EXTT3=
EXTT4=
EXTT5=
EXTT6=
EXTT7=
EXTT8=
EXTT9=
PLAYORDER=
